<?xml version="1.0" encoding="UTF-8" standalone="no"?>
<svg width="423px" height="441px" viewBox="0 0 423 441" version="1.1" xmlns="http://www.w3.org/2000/svg" xmlns:xlink="http://www.w3.org/1999/xlink">
    <!-- Generator: Sketch 3.6.1 (26313) - http://www.bohemiancoding.com/sketch -->
    <title>about_bg</title>
    <desc>Created with Sketch.</desc>
    <defs></defs>
    <g id="About" stroke="none" stroke-width="1" fill="none" fill-rule="evenodd">
        <g transform="translate(-977.000000, -60.000000)" id="about_bg" stroke-width="5">
            <g transform="translate(980.000000, 63.000000)">
                <path d="M0.1036875,435 L447.562979,435 L447.562979,276.84717 L0.1036875,276.84717 L0.1036875,435 Z" id="Stroke-4" stroke="#E7E7E7"></path>
                <path d="M72.828125,329.701887 L99.1614583,329.701887 L99.1614583,303.377358 L72.828125,303.377358 L72.828125,329.701887 Z" id="Stroke-5" stroke="#E7E7E7"></path>
                <path d="M33.328125,329.701887 L59.6614583,329.701887 L59.6614583,303.377358 L33.328125,303.377358 L33.328125,329.701887 Z" id="Stroke-6" stroke="#E7E7E7"></path>
                <path d="M112.328125,329.701887 L138.661458,329.701887 L138.661458,303.377358 L112.328125,303.377358 L112.328125,329.701887 Z" id="Stroke-7" stroke="#E7E7E7"></path>
                <path d="M191.328125,329.701887 L217.661458,329.701887 L217.661458,303.377358 L191.328125,303.377358 L191.328125,329.701887 Z" id="Stroke-8" stroke="#E7E7E7"></path>
                <path d="M151.828125,329.701887 L178.161458,329.701887 L178.161458,303.377358 L151.828125,303.377358 L151.828125,329.701887 Z" id="Stroke-9" stroke="#E7E7E7"></path>
                <path d="M230.828125,329.701887 L257.161458,329.701887 L257.161458,303.377358 L230.828125,303.377358 L230.828125,329.701887 Z" id="Stroke-10" stroke="#E7E7E7"></path>
                <path d="M269.505208,329.701887 L295.838542,329.701887 L295.838542,303.377358 L269.505208,303.377358 L269.505208,329.701887 Z" id="Stroke-11" stroke="#E7E7E7"></path>
                <path d="M72.828125,408.675472 L99.1614583,408.675472 L99.1614583,382.350943 L72.828125,382.350943 L72.828125,408.675472 Z" id="Stroke-12" stroke="#E7E7E7"></path>
                <path d="M33.328125,408.675472 L59.6614583,408.675472 L59.6614583,382.350943 L33.328125,382.350943 L33.328125,408.675472 Z" id="Stroke-13" stroke="#E7E7E7"></path>
                <path d="M112.328125,408.675472 L138.661458,408.675472 L138.661458,382.350943 L112.328125,382.350943 L112.328125,408.675472 Z" id="Stroke-14" stroke="#E7E7E7"></path>
                <path d="M151.828125,408.675472 L296.661458,408.675472 L296.661458,382.350943 L151.828125,382.350943 L151.828125,408.675472 Z" id="Stroke-15" stroke="#E7E7E7"></path>
                <path d="M309.005208,408.675472 L335.338542,408.675472 L335.338542,382.350943 L309.005208,382.350943 L309.005208,408.675472 Z" id="Stroke-16" stroke="#E7E7E7"></path>
                <path d="M348.505208,408.675472 L374.838542,408.675472 L374.838542,382.350943 L348.505208,382.350943 L348.505208,408.675472 Z" id="Stroke-17" stroke="#E7E7E7"></path>
                <path d="M388.005208,408.675472 L414.338542,408.675472 L414.338542,382.350943 L388.005208,382.350943 L388.005208,408.675472 Z" id="Stroke-18" stroke="#E7E7E7"></path>
                <path d="M309.005208,329.496226 L335.338542,329.496226 L335.338542,303.171698 L309.005208,303.171698 L309.005208,329.496226 Z" id="Stroke-19" stroke="#E7E7E7"></path>
                <path d="M348.505208,329.496226 L374.838542,329.496226 L374.838542,303.171698 L348.505208,303.171698 L348.505208,329.496226 Z" id="Stroke-20" stroke="#E7E7E7"></path>
                <path d="M388.005208,329.496226 L414.338542,329.496226 L414.338542,303.171698 L388.005208,303.171698 L388.005208,329.496226 Z" id="Stroke-21" stroke="#E7E7E7"></path>
                <path d="M52.6666667,369.188679 L79,369.188679 L79,342.864151 L52.6666667,342.864151 L52.6666667,369.188679 Z" id="Stroke-22" stroke="#E7E7E7"></path>
                <path d="M92.1666667,369.188679 L118.5,369.188679 L118.5,342.864151 L92.1666667,342.864151 L92.1666667,369.188679 Z" id="Stroke-23" stroke="#E7E7E7"></path>
                <path d="M131.666667,369.188679 L158,369.188679 L158,342.864151 L131.666667,342.864151 L131.666667,369.188679 Z" id="Stroke-24" stroke="#E7E7E7"></path>
                <path d="M171.166667,369.188679 L197.5,369.188679 L197.5,342.864151 L171.166667,342.864151 L171.166667,369.188679 Z" id="Stroke-25" stroke="#E7E7E7"></path>
                <path d="M210.666667,369.188679 L237,369.188679 L237,342.864151 L210.666667,342.864151 L210.666667,369.188679 Z" id="Stroke-26" stroke="#E7E7E7"></path>
                <path d="M250.166667,369.188679 L276.5,369.188679 L276.5,342.864151 L250.166667,342.864151 L250.166667,369.188679 Z" id="Stroke-27" stroke="#E7E7E7"></path>
                <path d="M289.666667,369.188679 L316,369.188679 L316,342.864151 L289.666667,342.864151 L289.666667,369.188679 Z" id="Stroke-28" stroke="#E7E7E7"></path>
                <path d="M329.166667,369.188679 L355.5,369.188679 L355.5,342.864151 L329.166667,342.864151 L329.166667,369.188679 Z" id="Stroke-29" stroke="#E7E7E7"></path>
                <path d="M368.666667,369.188679 L395,369.188679 L395,342.864151 L368.666667,342.864151 L368.666667,369.188679 Z" id="Stroke-30" stroke="#E7E7E7"></path>
                <path d="M210.666667,276.84717 L210.666667,0.439622642 L474,0.439622642 L474,355.820755 L447.561333,355.820755" id="Stroke-31" stroke="#E7E7E7"></path>
                <path d="M210.666667,26.7641509 L474,26.7641509" id="Stroke-32" stroke="#E7E7E7"></path>
                <path d="M237,79.4132075 L342.333333,79.4132075" id="Stroke-33" stroke="#E7E7E7"></path>
                <path d="M263.333333,92.5754717 L447.666667,92.5754717" id="Stroke-34" stroke="#E7E7E7"></path>
                <path d="M289.666667,105.737736 L421.333333,105.737736" id="Stroke-35" stroke="#E7E7E7"></path>
                <path d="M237,145.224528 L342.333333,145.224528" id="Stroke-36" stroke="#E7E7E7"></path>
                <path d="M263.333333,158.386792 L447.666667,158.386792" id="Stroke-37" stroke="#E7E7E7"></path>
                <path d="M289.666667,171.549057 L421.333333,171.549057" id="Stroke-38" stroke="#E7E7E7"></path>
                <path d="M237,211.035849 L342.333333,211.035849" id="Stroke-39" stroke="#E7E7E7"></path>
                <path d="M263.333333,224.198113 L447.666667,224.198113" id="Stroke-40" stroke="#E7E7E7"></path>
                <path d="M289.666667,237.360377 L421.333333,237.360377" id="Stroke-41" stroke="#E7E7E7"></path>
                <g id="Group-52" transform="translate(0.000000, 65.811321)" stroke="#E6E6E6">
                    <path d="M184.333333,92.5754717 C184.333333,143.460785 143.069,184.711321 92.1666667,184.711321 C41.2643333,184.711321 0,143.460785 0,92.5754717 C0,41.6901585 41.2643333,0.439622642 92.1666667,0.439622642 C143.069,0.439622642 184.333333,41.6901585 184.333333,92.5754717 L184.333333,92.5754717 Z" id="Stroke-44"></path>
                    <path d="M65.8333333,118.9 L39.5,92.5754717 L65.8333333,66.2509434" id="Stroke-46"></path>
                    <path d="M118.5,66.2509434 L144.833333,92.5754717 L118.5,118.9" id="Stroke-48"></path>
                    <path d="M105.333333,66.2509434 L79,118.9" id="Stroke-50"></path>
                </g>
            </g>
        </g>
    </g>
</svg>