<?xml version="1.0" encoding="UTF-8"?>
<svg width="578px" height="209px" viewBox="0 0 578 209" version="1.1" xmlns="http://www.w3.org/2000/svg" xmlns:xlink="http://www.w3.org/1999/xlink">
    <!-- Generator: Sketch 46.2 (44496) - http://www.bohemiancoding.com/sketch -->
    <title>Cello logo</title>
    <desc>Created with Sketch.</desc>
    <defs></defs>
    <g id="Page-1" stroke="none" stroke-width="1" fill="none" fill-rule="evenodd">
        <g id="Cello-logo" fill="#DE5555">
            <g id="Group">
                <path d="M199.85657,64.6563158 C184.464682,26.7422806 147.213337,0 103.703704,0 C46.4297297,0 0,46.3385284 0,103.5 C0,160.661472 46.4297297,207 103.703704,207 C146.881657,207 183.896374,180.663886 199.500762,143.208802 C180.266083,159.153984 152.293829,169.467033 130.769231,169.467033 C94.4222857,169.467033 64.957265,140.05989 64.957265,103.784341 C64.957265,67.5087914 94.4222857,38.1016484 130.769231,38.1016484 C152.426926,38.1016484 180.612263,48.5426338 199.85657,64.6563158 Z" id="Combined-Shape"></path>
                <ellipse id="Oval-2" cx="135.897436" cy="103.784341" rx="43.5897436" ry="43.5041209"></ellipse>
            </g>
            <path d="M299,121.88 C298.599998,125.240017 297.760006,128.539984 296.48,131.78 C295.199994,135.020016 293.320012,137.919987 290.84,140.48 C287.639984,143.760016 283.920021,146.259991 279.68,147.98 C275.439979,149.700009 271.040023,150.56 266.48,150.56 C261.919977,150.56 257.580021,149.800008 253.46,148.28 C249.339979,146.759992 245.640016,144.360016 242.36,141.08 C240.039988,138.759988 238.180007,136.320013 236.78,133.76 C235.379993,131.199987 234.320004,128.480014 233.6,125.6 C232.879996,122.719986 232.400001,119.700016 232.16,116.54 C231.919999,113.379984 231.8,110.040018 231.8,106.52 C231.8,103.079983 231.919999,99.760016 232.16,96.56 C232.400001,93.359984 232.879996,90.3200144 233.6,87.44 C234.320004,84.5599856 235.379993,81.8400128 236.78,79.28 C238.180007,76.7199872 240.039988,74.2800116 242.36,71.96 C245.640016,68.6799836 249.339979,66.2600078 253.46,64.7 C257.580021,63.1399922 261.919977,62.36 266.48,62.36 C271.040023,62.36 275.439979,63.1799918 279.68,64.82 C283.920021,66.4600082 287.639984,68.9199836 290.84,72.2 C293.320012,74.7600128 295.199994,77.639984 296.48,80.84 C297.760006,84.040016 298.599998,87.3199832 299,90.68 L283.16,90.68 C282.999999,88.8399908 282.600003,87.220007 281.96,85.82 C281.319997,84.419993 280.440006,83.0400068 279.32,81.68 C277.959993,79.9199912 276.140011,78.6000044 273.86,77.72 C271.579989,76.8399956 269.120013,76.4 266.48,76.4 C263.999988,76.4 261.620011,76.8799952 259.34,77.84 C257.059989,78.8000048 255.080008,80.1999908 253.4,82.04 C251.959993,83.5600076 250.840004,85.31999 250.04,87.32 C249.239996,89.32001 248.660002,91.419989 248.3,93.62 C247.939998,95.820011 247.72,98.0399888 247.64,100.28 C247.56,102.520011 247.52,104.59999 247.52,106.52 C247.52,108.44001 247.56,110.519989 247.64,112.76 C247.72,115.000011 247.939998,117.219989 248.3,119.42 C248.660002,121.620011 249.239996,123.71999 250.04,125.72 C250.840004,127.72001 251.959993,129.479992 253.4,131 C255.080008,132.840009 257.059989,134.239995 259.34,135.2 C261.620011,136.160005 263.999988,136.64 266.48,136.64 C269.120013,136.64 271.579989,136.180005 273.86,135.26 C276.140011,134.339995 277.959993,133.000009 279.32,131.24 C281.560011,128.519986 282.839998,125.400018 283.16,121.88 L299,121.88 Z M349.88,149 L349.88,110.48 C349.88,106.879982 349.160007,104.04001 347.72,101.96 C346.279993,99.8799896 343.56002,98.84 339.56,98.84 C337.319989,98.84 335.380008,99.3799946 333.74,100.46 C332.099992,101.540005 330.760005,102.919992 329.72,104.6 C328.679995,106.280008 327.920002,108.13999 327.44,110.18 C326.959998,112.22001 326.72,114.19999 326.72,116.12 L326.72,149 L311.72,149 L311.72,62.36 L326.72,62.36 L326.72,93.2 C328.560009,90.5599868 331.039984,88.540007 334.16,87.14 C337.280016,85.739993 340.479984,85.04 343.76,85.04 C347.120017,85.04 350.099987,85.5999944 352.7,86.72 C355.300013,87.8400056 357.499991,89.39999 359.3,91.4 C361.100009,93.40001 362.479995,95.7599864 363.44,98.48 C364.400005,101.200014 364.88,104.159984 364.88,107.36 L364.88,149 L349.88,149 Z M435.44,118.28 C435.36,118.840003 435.32,119.359998 435.32,119.84 L435.32,122.48 L393.56,122.48 C393.56,124.880012 393.939996,127.159989 394.7,129.32 C395.460004,131.480011 396.599992,133.279993 398.12,134.72 C399.240006,135.760005 400.539993,136.659996 402.02,137.42 C403.500007,138.180004 405.27999,138.56 407.36,138.56 C409.520011,138.56 411.299993,138.340002 412.7,137.9 C414.100007,137.459998 415.359994,136.680006 416.48,135.56 C417.920007,134.119993 418.919997,132.36001 419.48,130.28 L433.88,130.28 C433.719999,132.120009 433.100005,134.139989 432.02,136.34 C430.939995,138.540011 429.800006,140.359993 428.6,141.8 C425.959987,144.920016 422.800018,147.159993 419.12,148.52 C415.439982,149.880007 411.60002,150.56 407.6,150.56 C403.279978,150.56 399.540016,149.860007 396.38,148.46 C393.219984,147.059993 390.400012,145.200012 387.92,142.88 C384.799984,139.839985 382.420008,136.200021 380.78,131.96 C379.139992,127.719979 378.32,123.040026 378.32,117.92 C378.32,112.879975 379.059993,108.220021 380.54,103.94 C382.020007,99.6599786 384.279985,96.0000152 387.32,92.96 C389.640012,90.559988 392.459983,88.6400072 395.78,87.2 C399.100017,85.7599928 402.919978,85.04 407.24,85.04 C411.880023,85.04 416.19998,85.9799906 420.2,87.86 C424.20002,89.7400094 427.479987,92.6399804 430.04,96.56 C432.360012,100.000017 433.839997,103.499982 434.48,107.06 C435.120003,110.620018 435.44,114.35998 435.44,118.28 Z M420.44,111.56 C420.36,106.999977 419.080012,103.360014 416.6,100.64 C415.559995,99.5199944 414.260008,98.6400032 412.7,98 C411.139992,97.3599968 409.280011,97.04 407.12,97.04 C404.799988,97.04 402.760009,97.4799956 401,98.36 C399.239991,99.2400044 397.800006,100.399993 396.68,101.84 C395.559994,103.200007 394.760002,104.639992 394.28,106.16 C393.799998,107.680008 393.52,109.47999 393.44,111.56 L420.44,111.56 Z M472.76,148.88 C471.239992,149.200002 470.140003,149.419999 469.46,149.54 C468.779997,149.660001 467.680008,149.72 466.16,149.72 C461.039974,149.72 456.920016,148.400013 453.8,145.76 C450.679984,143.119987 449.12,138.84003 449.12,132.92 L449.12,62.24 L464.24,62.24 L464.24,130.4 C464.24,132.240009 464.599996,133.699995 465.32,134.78 C466.040004,135.860005 467.679987,136.4 470.24,136.4 C470.880003,136.4 471.359998,136.38 471.68,136.34 C472.000002,136.3 472.359998,136.28 472.76,136.28 L472.76,148.88 Z M509,148.88 C507.479992,149.200002 506.380003,149.419999 505.7,149.54 C505.019997,149.660001 503.920008,149.72 502.4,149.72 C497.279974,149.72 493.160016,148.400013 490.04,145.76 C486.919984,143.119987 485.36,138.84003 485.36,132.92 L485.36,62.24 L500.48,62.24 L500.48,130.4 C500.48,132.240009 500.839996,133.699995 501.56,134.78 C502.280004,135.860005 503.919987,136.4 506.48,136.4 C507.120003,136.4 507.599998,136.38 507.92,136.34 C508.240002,136.3 508.599998,136.28 509,136.28 L509,148.88 Z M575.96,117.8 C575.96,123.080026 575.320006,127.499982 574.04,131.06 C572.759994,134.620018 570.960012,137.879985 568.64,140.84 C566.479989,143.480013 563.500019,145.75999 559.7,147.68 C555.899981,149.60001 551.600024,150.56 546.8,150.56 C541.999976,150.56 537.700019,149.60001 533.9,147.68 C530.099981,145.75999 527.120011,143.480013 524.96,140.84 C522.639988,137.879985 520.840006,134.620018 519.56,131.06 C518.279994,127.499982 517.64,123.080026 517.64,117.8 C517.64,112.519974 518.279994,108.100018 519.56,104.54 C520.840006,100.979982 522.639988,97.7200148 524.96,94.76 C527.120011,92.1199868 530.099981,89.8400096 533.9,87.92 C537.700019,85.9999904 541.999976,85.04 546.8,85.04 C551.600024,85.04 555.899981,85.9999904 559.7,87.92 C563.500019,89.8400096 566.479989,92.1199868 568.64,94.76 C570.960012,97.7200148 572.759994,100.979982 574.04,104.54 C575.320006,108.100018 575.96,112.519974 575.96,117.8 Z M560.72,117.8 C560.72,114.839985 560.440003,111.980014 559.88,109.22 C559.319997,106.459986 558.120009,104.08001 556.28,102.08 C555.239995,100.959994 553.920008,100.020004 552.32,99.26 C550.719992,98.4999962 548.88001,98.12 546.8,98.12 C544.71999,98.12 542.880008,98.4999962 541.28,99.26 C539.679992,100.020004 538.360005,100.959994 537.32,102.08 C535.479991,104.08001 534.280003,106.459986 533.72,109.22 C533.159997,111.980014 532.88,114.839985 532.88,117.8 C532.88,120.760015 533.159997,123.619986 533.72,126.38 C534.280003,129.140014 535.479991,131.51999 537.32,133.52 C538.360005,134.640006 539.679992,135.579996 541.28,136.34 C542.880008,137.100004 544.71999,137.48 546.8,137.48 C548.88001,137.48 550.719992,137.100004 552.32,136.34 C553.920008,135.579996 555.239995,134.640006 556.28,133.52 C558.120009,131.51999 559.319997,129.140014 559.88,126.38 C560.440003,123.619986 560.72,120.760015 560.72,117.8 Z" id="Chello"></path>
        </g>
    </g>
</svg>