<?xml version="1.0" encoding="UTF-8"?>
<svg width="163px" height="56px" viewBox="0 0 163 56" version="1.1" xmlns="http://www.w3.org/2000/svg" xmlns:xlink="http://www.w3.org/1999/xlink">
    <!-- Generator: Sketch 45.2 (43514) - http://www.bohemiancoding.com/sketch -->
    <title>logo</title>
    <desc>Created with Sketch.</desc>
    <defs>
        <ellipse id="path-1" cx="27.6837929" cy="27.676685" rx="27.6837929" ry="27.676685"></ellipse>
        <rect id="path-3" x="38.7573101" y="0.0996874632" width="19.2582907" height="19.2533461"></rect>
    </defs>
    <g id="Page-1" stroke="none" stroke-width="1" fill="none" fill-rule="evenodd">
        <g id="logo" transform="translate(-12.000000, -13.000000)">
            <path d="M73.244,41.868 C73.244,35.444 78.348,30.472 84.64,30.472 C90.932,30.472 96.036,35.444 96.036,41.868 C96.036,48.424 90.932,53.528 84.64,53.528 C78.348,53.528 73.244,48.424 73.244,41.868 Z M75.18,41.868 C75.18,47.456 79.404,51.724 84.64,51.724 C89.876,51.724 94.1,47.456 94.1,41.868 C94.1,36.412 89.876,32.276 84.64,32.276 C79.404,32.276 75.18,36.412 75.18,41.868 Z M101.06,50.36 C101.06,50.36 103.7,53.528 109.024,53.528 C113.072,53.528 116.064,51.108 116.064,47.588 C116.064,40.284 103.964,42 103.964,36.28 C103.964,33.42 106.428,32.276 108.936,32.276 C112.676,32.276 114.48,34.344 114.48,34.344 L115.58,32.848 C115.58,32.848 113.556,30.472 109.068,30.472 C105.328,30.472 102.028,32.496 102.028,36.412 C102.028,43.584 114.128,42 114.128,47.588 C114.128,50.316 111.752,51.724 109.068,51.724 C104.712,51.724 102.248,48.952 102.248,48.952 L101.06,50.36 Z M121.132,47.148 C121.132,39.668 130.856,39.58 134.772,39.58 L136.224,39.58 L136.224,38.832 C136.224,33.948 133.716,32.276 130.196,32.276 C126.368,32.276 123.904,34.388 123.904,34.388 L122.848,32.892 C122.848,32.892 125.488,30.472 130.284,30.472 C135.344,30.472 138.072,33.288 138.072,38.788 L138.072,53 L136.224,53 L136.224,50.096 C136.224,48.908 136.4,48.116 136.4,48.116 L136.312,48.116 C136.356,48.116 134.332,53.528 128.612,53.528 C125.048,53.528 121.132,51.548 121.132,47.148 Z M123.068,47.016 C123.068,49.348 124.96,51.812 128.7,51.812 C133.496,51.812 136.224,46.84 136.224,42.484 L136.224,41.296 L134.816,41.296 C131.076,41.296 123.068,41.296 123.068,47.016 Z M146.132,25.412 L148.332,25.412 L148.332,22.2 L146.132,22.2 L146.132,25.412 Z M146.308,53 L148.156,53 L148.156,31 L146.308,31 L146.308,53 Z M155.16,42.044 C155.16,49.04 160.308,53.528 166.512,53.528 C171.968,53.528 174.828,50.096 174.828,50.096 L173.86,48.556 C173.86,48.556 171.352,51.724 166.512,51.724 C161.364,51.724 157.096,47.896 157.096,42.044 C157.096,36.104 161.364,32.276 166.512,32.276 C170.736,32.276 173.244,35.092 173.244,35.092 L174.388,33.596 C174.388,33.596 171.748,30.472 166.512,30.472 C160.396,30.472 155.16,35.048 155.16,42.044 Z" id="osaic" fill="#FDFDFD" fill-rule="nonzero"></path>
            <g id="Group" transform="translate(40.400541, 41.379322) rotate(45.000000) translate(-40.400541, -41.379322) translate(12.400541, 13.379322)">
                <mask id="mask-2" fill="white">
                    <use xlink:href="#path-1"></use>
                </mask>
                <g id="Oval-2"></g>
                <g id="Group-3" mask="url(#mask-2)">
                    <g transform="translate(-1.444372, -1.444001)" id="Rectangle-3">
                        <rect stroke="#2C6AFF" stroke-width="1" fill="#2C6AFF" fill-rule="evenodd" x="0.240728634" y="0.0996874632" width="19.2582907" height="19.2533461"></rect>
                        <rect stroke="#0007BC" stroke-width="1" fill="#0007BC" fill-rule="evenodd" x="38.7573101" y="38.6063796" width="19.2582907" height="19.2533461"></rect>
                        <g stroke="none" fill="none">
                            <use fill="#3B26FF" fill-rule="evenodd" xlink:href="#path-3"></use>
                            <rect stroke="#3B26FF" stroke-width="1" x="39.2573101" y="0.599687463" width="18.2582907" height="18.2533461"></rect>
                        </g>
                        <rect stroke="#1920D2" stroke-width="1" fill="#1A21D2" fill-rule="evenodd" x="38.7573101" y="19.3530335" width="19.2582907" height="19.2533461"></rect>
                        <rect stroke="#3B26FF" stroke-width="1" fill="#3B26FF" fill-rule="evenodd" x="0.240728634" y="38.6063796" width="19.2582907" height="19.2533461"></rect>
                        <rect stroke="#1920D2" stroke-width="1" fill="#1A21D2" fill-rule="evenodd" x="19.4990194" y="38.6063796" width="19.2582907" height="19.2533461"></rect>
                        <rect stroke="#244BFF" stroke-width="1" fill="#244BFF" fill-rule="evenodd" x="19.4990194" y="0.0996874632" width="19.2582907" height="19.2533461"></rect>
                        <rect stroke="#244BFF" stroke-width="1" fill="#244BFF" fill-rule="evenodd" x="0.240728634" y="19.3530335" width="19.2582907" height="19.2533461"></rect>
                        <rect stroke="#3B26FF" stroke-width="1" fill="#3B26FF" fill-rule="evenodd" x="19.4990194" y="19.3530335" width="19.2582907" height="19.2533461"></rect>
                    </g>
                </g>
            </g>
            <path d="M40.8204212,35.7885574 C41.4784442,33.5512795 42.5970663,31.8322204 44.1763213,30.6313286 C45.7555763,29.4304368 47.5486618,28.8299999 49.5556317,28.8299999 C51.0690844,28.8299999 52.3439846,29.1096555 53.3803707,29.6689749 C54.4167568,30.2282944 55.2392731,30.9685591 55.8479443,31.8897911 C56.4566155,32.8110232 56.8925491,33.8473938 57.1557583,34.9989338 C57.4189674,36.1504739 57.55057,37.3184471 57.55057,38.5028883 L57.55057,52.2225974 L56.4648377,52.2225974 L56.4648377,38.6015913 C56.4648377,37.6803592 56.3579106,36.6933396 56.1440531,35.640503 C55.9301957,34.5876663 55.5600633,33.6335474 55.033645,32.7781176 C54.5072267,31.9226879 53.7998627,31.2070987 52.9115317,30.6313286 C52.0232008,30.0555586 50.9045786,29.7676779 49.5556317,29.7676779 C48.3711904,29.7676779 47.2607934,30.0226579 46.2244074,30.5326257 C45.1880213,31.0425934 44.2832534,31.7746329 43.5100764,32.7287662 C42.7368995,33.6828994 42.1200123,34.8426474 41.6593963,36.2080449 C41.1987802,37.5734424 40.9684757,39.1279982 40.9684757,40.8717589 L40.9684757,52.2225974 L39.8827433,52.2225974 L39.8827433,38.6015913 C39.8827433,37.6803592 39.7922665,36.6933396 39.6113102,35.640503 C39.4303539,34.5876663 39.0931222,33.6335474 38.599605,32.7781176 C38.1060879,31.9226879 37.4233993,31.2070987 36.551519,30.6313286 C35.6796386,30.0555586 34.5692416,29.7676779 33.2202947,29.7676779 C32.0358534,29.7676779 30.9254564,30.0226579 29.8890703,30.5326257 C28.8526843,31.0425934 27.9479163,31.7746329 27.1747394,32.7287662 C26.4015625,33.6828994 25.7929004,34.8426474 25.348735,36.2080449 C24.9045695,37.5734424 24.6824901,39.1279982 24.6824901,40.8717589 L24.6824901,52.2225974 L23.5967577,52.2225974 L23.5967577,35.2456912 C23.5967577,34.8837786 23.5885326,34.4396198 23.572082,33.9132015 C23.5556314,33.3867831 23.5391811,32.8521476 23.5227305,32.3092787 C23.50628,31.7664098 23.4816045,31.2482245 23.4487033,30.7547073 C23.4158022,30.2611901 23.3829015,29.849932 23.3500004,29.5209205 L24.4357328,29.5209205 C24.4686339,29.849932 24.4933094,30.2611901 24.50976,30.7547073 C24.5262105,31.2482245 24.5426609,31.7828601 24.5591114,32.3586301 C24.575562,32.9344002 24.5920123,33.4937113 24.6084629,34.0365802 C24.6249135,34.5794491 24.6331386,35.0647337 24.6331386,35.4924486 L24.7318416,35.4924486 C25.060853,34.4396119 25.5214622,33.5019433 26.1136828,32.6794147 C26.7059034,31.8568861 27.3721416,31.1577472 28.1124174,30.5819772 C28.8526931,30.0062071 29.6587591,29.5702735 30.5306395,29.2741632 C31.4025198,28.9780529 32.2990626,28.8299999 33.2202947,28.8299999 C34.4047359,28.8299999 35.4328813,29.0109535 36.3047616,29.3728661 C37.176642,29.7347787 37.9086815,30.2282885 38.5009021,30.8534103 C39.0931227,31.478532 39.5701822,32.2105715 39.9320948,33.0495507 C40.2940074,33.8885299 40.5572126,34.801523 40.7217183,35.7885574 L40.8204212,35.7885574 Z" id="m-copy" stroke="#FFFFFF" stroke-width="0.800000012" fill="#FFFFFF"></path>
        </g>
    </g>
</svg>